<svg xmlns="http://www.w3.org/2000/svg" xmlns:xlink="http://www.w3.org/1999/xlink" width="38" height="38" viewBox="0 0 38 38">
    <defs>
        <filter id="7cjtpmjh9a" width="146.7%" height="146.7%" x="-23.3%" y="-16.7%" filterUnits="objectBoundingBox">
            <feOffset dy="2" in="SourceAlpha" result="shadowOffsetOuter1"/>
            <feGaussianBlur in="shadowOffsetOuter1" result="shadowBlurOuter1" stdDeviation="2"/>
            <feColorMatrix in="shadowBlurOuter1" values="0 0 0 0 0 0 0 0 0 0 0 0 0 0 0 0 0 0 0.5 0"/>
        </filter>
        <path id="j6lbdvphqb" d="M188 78c0 8.286-6.716 15-15 15-8.284 0-15-6.714-15-15 0-8.281 6.716-15 15-15 8.284 0 15 6.719 15 15zm-14.597-10.04c-3.297 0-5.399 1.388-7.05 3.856-.214.32-.142.75.164.983l2.1 1.592c.314.238.762.182 1.007-.129 1.08-1.37 1.821-2.165 3.466-2.165 1.236 0 2.764.795 2.764 1.994 0 .905-.748 1.37-1.968 2.055-1.423.797-3.305 1.79-3.305 4.273v.242c0 .401.325.726.725.726h3.388c.4 0 .725-.325.725-.726v-.08c0-1.722 5.032-1.794 5.032-6.452 0-3.508-3.64-6.17-7.048-6.17zm-.403 15c-1.534 0-2.782 1.248-2.782 2.782s1.248 2.782 2.782 2.782 2.782-1.248 2.782-2.782-1.248-2.782-2.782-2.782z"/>
    </defs>
    <g fill="none" fill-rule="evenodd">
        <g fill-rule="nonzero">
            <g transform="translate(-169 -240) translate(15 179)">
                <use fill="#000" filter="url(#7cjtpmjh9a)" xlink:href="#j6lbdvphqb"/>
                <use fill="#FFF" xlink:href="#j6lbdvphqb"/>
            </g>
        </g>
    </g>
</svg>
