<svg xmlns="http://www.w3.org/2000/svg" width="12" height="15" viewBox="0 0 12 15">
    <g fill="none">
        <path fill="#F59E01" d="M10.85 8.366l-5.1-.001-5.1.001s-.214 5.875-.063 6.481c1.804.204 8.521.204 10.326 0 .151-.606-.063-6.48-.063-6.48z"/>
        <path fill="#EA8800" d="M11.495 7.575c0-.152-.138-.235-.226-.257-1.682-.424-9.357-.424-11.038 0-.089.022-.227.106-.227.257C.005 9.435 0 13.748 0 14.55c0 .151.326.255.587.297 0-.298.076-6.45.076-6.45l5.087-.064 5.088.063s.075 6.153.075 6.451c.261-.041.587-.145.587-.296 0-.803-.005-5.117-.005-6.976z"/>
        <path fill="#FFE463" d="M10.869 8.266c-.09.09-1.668 0-5.119 0-3.451 0-5.03.09-5.12 0-.162-.162-.554-.852-.554-.852s.51.944.51 1.172c0 1.86-.053 5.992 0 6.261.07-.315.14-5.784.188-6.18.023-.193 2.434-.181 4.976-.181 2.541 0 4.952-.013 4.975.181.049.396.119 5.865.187 6.18.054-.27 0-4.402 0-6.261 0-.228.512-1.172.512-1.172s-.393.69-.555.852z"/>
        <path fill="#AB5C10" d="M3.317 7.646c0 .529-2.25.529-2.25 0 0-.528 2.25-.528 2.25 0zm7.111 0c0 .529-2.25.529-2.25 0 0-.528 2.25-.528 2.25 0z"/>
        <path fill="#CFD8DD" d="M5.75 0c-2.486 0-4.5 1.984-4.5 4.432v3.227c0 .455 1.884.455 1.884 0V4.432c0-3.445 5.231-3.445 5.231 0v3.227c0 .455 1.885.455 1.885 0V4.432C10.25 1.984 8.235 0 5.75 0z"/>
        <path fill="#99A8AE" d="M2.634 4.433V7.66c0 .187-.317.295-.692.329.538.048 1.192-.06 1.192-.329V4.433c0-1.613 1.147-2.47 2.366-2.573-1.386-.117-2.866.74-2.866 2.573zM5.75 0c-.085 0-.167.008-.25.013 2.368.128 4.25 2.054 4.25 4.419v3.228c0 .186-.318.295-.693.328.538.048 1.193-.06 1.193-.329V4.434c0-2.448-2.015-4.432-4.5-4.432z"/>
        <path fill="#E6EBEF" d="M8.701 4.108c-.077-1.568-1.404-2.51-2.816-2.431 1.412.156 2.514.91 2.646 2.484.08.954-.025 3.391.072 3.05.145-.505.12-2.644.098-3.103zm-7.317.355c0-2.337 1.925-4.25 3.9-4.25-2.05.4-3.53 1.891-3.69 4.327-.12 1.838-.21 3.722-.21 2.519V4.463z"/>
    </g>
</svg>
