<svg xmlns="http://www.w3.org/2000/svg" width="31" height="37" viewBox="0 0 31 37">
    <g fill="none" fill-rule="evenodd">
        <g>
            <g transform="translate(-113 -86) translate(114 87)">
                <path stroke="#BE9E56" stroke-width=".5" d="M7.787 34.125C5.021 35.536.53 35.416.211 29.455-.001 25.48-.053 18.131.055 7.41c.05-1.444 1.061-1.365 3.035.237 2.96 2.403 15.948 11.033 18.995 13.015 3.047 1.982 8.035-4.36 4.03-7.563C22.112 9.897 9.118 1.4 8.898 1.006 8.677.614 9.4-.363 10.144.142c.745.504 2.848 1.58 16.596 11.527.142.103 1.754 1.435 2.1 2.834.185.745.87 2.116-1.205 5.253-1.395 2.11-5.178 5.08-8.215 7.145-2.073 1.41-6.521 4.273-8.117 5.28-.237.15-.75.533-3.516 1.944z"/>
                <path fill="#BE9E56" fill-rule="nonzero" d="M13.274 23.117l-6.254 4.17c-.185.122-.409.023-.5-.223-.027-.07-.04-.145-.04-.222v-8.339c0-.275.167-.497.373-.497.058 0 .115.018.167.052l6.254 4.17c.184.122.259.421.166.667-.036.096-.094.174-.166.222z"/>
                <rect width="12.6" height="1" x="3.384" y="8.382" fill="#BE9E56" fill-rule="nonzero" rx=".467" transform="rotate(34 9.684 8.849)"/>
                <rect width="21" height="1" x="5.466" y="8.397" fill="#BE9E56" fill-rule="nonzero" rx=".467" transform="rotate(34 15.966 8.864)"/>
            </g>
        </g>
    </g>
</svg>
