<svg xmlns="http://www.w3.org/2000/svg" width="106" height="106" viewBox="0 0 106 106">
    <g fill="none" fill-rule="evenodd">
        <g>
            <g>
                <g transform="translate(-135 -21) translate(135 22) translate(22)">
                    <path stroke="#BE9E56" d="M16.687 73.125C10.76 76.15 1.134 75.891.452 63.116-.003 54.6-.114 38.854.118 15.881c.106-3.095 2.274-2.925 6.503.508 6.344 5.15 34.175 23.643 40.704 27.89 6.528 4.247 17.218-9.344 8.637-16.207-8.581-6.863-36.425-25.074-36.896-25.915-.471-.842 1.076-2.935 2.672-1.854C23.334 1.385 27.84 3.688 57.3 25.005c.305.22 3.758 3.075 4.501 6.073.396 1.597 1.865 4.534-2.583 11.257-2.99 4.52-11.096 10.887-17.604 15.31-4.442 3.02-13.974 9.156-17.393 11.316-.508.32-1.608 1.14-7.534 4.164z"/>
                    <path fill="#BE9E56" fill-rule="nonzero" d="M28.443 49.537l-13.4 8.934c-.396.263-.876.05-1.073-.477-.056-.148-.085-.311-.085-.476V39.65c0-.59.358-1.066.8-1.066.124 0 .246.038.357.112l13.401 8.934c.395.263.555.904.358 1.43-.078.206-.203.374-.358.477z"/>
                    <rect width="27" height="2" x="7.251" y="17.962" fill="#BE9E56" fill-rule="nonzero" rx="1" transform="rotate(34 20.751 18.962)"/>
                    <rect width="45" height="2" x="11.713" y="17.995" fill="#BE9E56" fill-rule="nonzero" rx="1" transform="rotate(34 34.213 18.995)"/>
                </g>
                <text fill="#BE9E56" font-family="GillSans-Light, Gill Sans" font-size="20" font-weight="300" transform="translate(-135 -21) translate(135 22)">
                    <tspan x=".275" y="100">FORMACEO</tspan>
                </text>
            </g>
        </g>
    </g>
</svg>
