<svg xmlns="http://www.w3.org/2000/svg" width="18" height="20" viewBox="0 0 18 20">
    <g fill="none">
        <path fill="#D19F74" d="M9.757.753s2.926 1.935 2.99 6.21c1.104-2.983-.337-5.51-2.99-6.21zm2.333-.31s2.373 1.57 2.425 5.037c.895-2.42-.273-4.469-2.425-5.037zM4.425 17.701S1.268 16.203.632 11.979c-.694 3.112 1.071 5.408 3.793 5.722zm.218 1.162S1.827 18.84 0 15.933c.486 2.542 2.529 3.634 4.643 2.93z"/>
        <path fill="#FCD5B2" d="M15.508 5.343c-2.295 1.37-1.16 3.096-2.307 3.78l-.672-1.202-9.308 5.552 1.68 3.005c1.542 2.76 4.17 4.724 7.612 2.671 5.738-3.422 2.14-8.489 4.814-13.288.331-.595-.674-1.201-1.82-.518z"/>
        <path fill="#DBA97F" d="M15.508 5.343c-.129.077-.254.16-.375.25 1.055-.497 1.923.056 1.612.615-2.615 4.695.765 9.645-4.458 13.061.076-.042.15-.075.226-.12 5.738-3.422 2.14-8.489 4.814-13.288.331-.595-.674-1.201-1.82-.518z"/>
        <path fill="#FCD5B2" d="M6.18 2.11l4.694 8.4 2.327-1.387-4.695-8.4C7.6-.898 5.274.49 6.179 2.11zm-3 .187l5.367 9.602 2.327-1.388L5.508.909C4.602-.711 2.275.676 3.18 2.297z"/>
        <path fill="#FCD5B2" d="M1.189 4.285l5.031 9.001L8.547 11.9l-5.03-9.002C2.61 1.277.282 2.665 1.188 4.285z"/>
        <path fill="#FCD5B2" d="M.205 8.077l4.024 7.199 2.327-1.388-4.023-7.199C1.627 5.07-.7 6.457.205 8.077z"/>
        <path fill="#D19F74" d="M6.395.413c.533-.166 1.154-.018 1.53.655l4.696 8.401.58-.346-4.695-8.4c-.53-.947-1.54-.863-2.11-.31zM3.393.595c.534-.166 1.155-.017 1.531.656L8.95 8.453l.58-.346L5.505.905c-.53-.948-1.54-.863-2.112-.31zm-1.99 1.99c.533-.167 1.154-.019 1.53.655l3.69 6.601.58-.346-3.689-6.602c-.53-.947-1.54-.863-2.111-.308zM.419 6.376c.534-.166 1.154-.018 1.53.656l2.683 4.798.58-.346-2.681-4.799C2 5.74.99 5.822.419 6.376z"/>
        <path fill="#D19F74" d="M12.865 8.522l-.582.347c-.915 1.017-1.901 3.538-.612 5.844-.558-2.416.366-4.896 1.53-5.59l-.336-.601zm-7.216 2.702s-.582.347-1.264 1.555c0 0 .453-1.272-.135-2.324.817 1.116 1.399.769 1.399.769zm2.243-1.539s-.957.37-1.516 1.105c0 0 .475-.885-.051-2.173.817 1.115 1.567 1.068 1.567 1.068zm2.556-1.324s-.834-.104-1.684.804c0 0 .475-.884-.196-2.086.671 1.201 1.88 1.282 1.88 1.282z"/>
    </g>
</svg>
